Coordinates
version=1
nRows=16
nColumns=63
inDegrees=yes

Units are S.I. units (second, meters, Newtons, ...)
If the header above contains a line with 'inDegrees', this indicates whether rotational values are in degrees (yes) or radians (no).

endheader
time	pelvis_tilt	pelvis_list	pelvis_rotation	pelvis_tx	pelvis_ty	pelvis_tz	hip_flexion_r	hip_adduction_r	hip_rotation_r	knee_angle_r	knee_angle_r_beta	ankle_angle_r	subtalar_angle_r	mtp_angle_r	hip_flexion_l	hip_adduction_l	hip_rotation_l	knee_angle_l	knee_angle_l_beta	ankle_angle_l	subtalar_angle_l	mtp_angle_l	L5_S1_Flex_Ext	L5_S1_Lat_Bending	L5_S1_axial_rotation	L4_L5_Flex_Ext	L4_L5_Lat_Bending	L4_L5_axial_rotation	L3_L4_Flex_Ext	L3_L4_Lat_Bending	L3_L4_axial_rotation	L2_L3_Flex_Ext	L2_L3_Lat_Bending	L2_L3_axial_rotation	L1_L2_Flex_Ext	L1_L2_Lat_Bending	L1_L2_axial_rotation	L1_T12_Flex_Ext	L1_T12_Lat_Bending	L1_T12_axial_rotation	Abs_r3	Abs_r2	Abs_r1	Abs_t1	Abs_t2	neck_flexion	neck_bending	neck_rotation	arm_flex_r	arm_add_r	arm_rot_r	elbow_flex_r	pro_sup_r	wrist_flex_r	wrist_dev_r	arm_flex_l	arm_add_l	arm_rot_l	elbow_flex_l	pro_sup_l	wrist_flex_l	wrist_dev_l
0.000000	0.661694	-4.621777	89.043801	0.266130	1.043290	0.113158	-5.813174	-0.806417	16.381303	2.391258	0.041735	19.362344	-12.074253	0.000000	-3.396002	-0.194884	-1.420624	6.797183	0.118633	26.716620	-5.534532	0.000000	0.376082	0.001156	1.066737	0.698423	0.001538	1.133408	0.617866	0.002811	1.133408	0.429824	0.002811	0.933395	0.349230	0.002358	0.866723	0.214893	0.001791	0.800052	2.686318	0.013078	5.932869	0.000000	0.000000	27.659807	-0.399491	12.628608	5.176349	-6.953794	65.780664	45.839687	0.949993	-5.985558	0.623292	16.144993	-1.491573	73.821073	37.280375	69.092334	4.100928	9.650816
0.016949	0.495349	-4.510862	89.237802	0.265320	1.042458	0.111605	-6.109494	-1.047103	16.575167	2.161997	0.037734	19.680660	-12.397464	0.000000	-3.665402	0.047753	-1.274933	6.641491	0.115916	27.030889	-5.710934	0.000000	0.377260	-0.012277	1.026065	0.700610	-0.016329	1.090194	0.619801	-0.029851	1.090194	0.431171	-0.029851	0.897807	0.350324	-0.025036	0.833678	0.215566	-0.019017	0.769549	2.694731	-0.138882	5.706664	0.000000	0.000000	27.645978	0.523200	13.322883	4.786378	-6.844178	65.454721	46.024566	0.908966	-6.183935	0.295415	15.585885	-1.743212	71.905996	37.953090	71.895545	4.587384	10.796774
0.033898	0.370665	-4.411323	89.317478	0.264736	1.041742	0.110241	-6.363684	-1.241484	16.823086	1.969051	0.034366	19.938478	-12.689631	0.000000	-3.932359	0.245536	-1.184923	6.475358	0.113016	27.226762	-5.889046	0.000000	0.377625	-0.020533	0.997107	0.701288	-0.027308	1.059426	0.620400	-0.049923	1.059426	0.431588	-0.049923	0.872469	0.350663	-0.041870	0.810150	0.215775	-0.031805	0.747830	2.697339	-0.232268	5.545611	0.000000	0.000000	27.637592	1.279492	13.843259	4.467703	-6.755854	65.194012	46.183335	0.879848	-6.466745	0.214384	15.146346	-1.962323	70.429216	38.511867	74.153366	4.990143	11.730263
0.050847	0.284226	-4.323447	89.295661	0.264355	1.041136	0.109055	-6.577971	-1.393129	17.115458	1.809678	0.031585	20.140700	-12.950236	0.000000	-4.194183	0.401791	-1.148251	6.301553	0.109983	27.319462	-6.063084	0.000000	0.377423	-0.024067	0.978916	0.700913	-0.032010	1.040098	0.620069	-0.058517	1.040098	0.431357	-0.058517	0.856551	0.350475	-0.049078	0.795369	0.215660	-0.037280	0.734187	2.695897	-0.272255	5.444436	0.000000	0.000000	27.634507	1.883706	14.206561	4.214171	-6.687145	64.995348	46.316757	0.861650	-6.819051	0.348159	14.814750	-2.150236	69.350411	38.964849	75.919710	5.312767	12.464395
0.067797	0.232620	-4.247521	89.185180	0.264153	1.040631	0.108034	-6.754584	-1.505605	17.442676	1.681138	0.029341	20.292230	-13.178761	0.000000	-4.448187	0.519842	-1.162574	6.122846	0.106864	27.324208	-6.227261	0.000000	0.376900	-0.023339	0.970543	0.699942	-0.031041	1.031201	0.619210	-0.056747	1.031201	0.430760	-0.056747	0.849225	0.349990	-0.047593	0.788566	0.215361	-0.036152	0.727907	2.692163	-0.264018	5.397866	0.000000	0.000000	27.636584	2.350159	14.429615	4.019626	-6.636373	64.855537	46.425596	0.853379	-7.225917	0.664700	14.579468	-2.308276	68.629254	39.320181	77.248490	5.558820	13.012286
0.084746	0.212433	-4.183835	88.998868	0.264106	1.040217	0.107167	-6.895750	-1.582481	17.795136	1.580688	0.027588	20.397970	-13.374690	0.000000	-4.691680	0.603015	-1.225551	5.942008	0.103708	27.256222	-6.375793	0.000000	0.376302	-0.018806	0.971040	0.698831	-0.025012	1.031729	0.618227	-0.045724	1.031729	0.430076	-0.045724	0.849660	0.349434	-0.038349	0.788970	0.215019	-0.029130	0.728280	2.687889	-0.212734	5.400630	0.000000	0.000000	27.643682	2.693171	14.529244	3.877914	-6.601862	64.771391	46.510617	0.854046	-7.672406	1.131966	14.428875	-2.437773	68.225420	39.586004	78.193620	5.731864	13.387048
0.101695	0.220250	-4.132676	88.749554	0.264189	1.039886	0.106441	-7.003697	-1.627324	18.163232	1.505589	0.026277	20.462823	-13.537506	0.000000	-4.921974	0.654635	-1.334839	5.761806	0.100562	27.130723	-6.502893	0.000000	0.375874	-0.010924	0.979459	0.698036	-0.014529	1.040675	0.617524	-0.026561	1.040675	0.429587	-0.026561	0.857026	0.349037	-0.022277	0.795810	0.214775	-0.016922	0.734594	2.684833	-0.123577	5.447455	0.000000	0.000000	27.655661	2.927059	14.522276	3.782879	-6.581934	64.739720	46.572583	0.862658	-8.143581	1.717918	14.351344	-2.540055	68.098586	39.770465	78.809013	5.835461	13.601796
0.118644	0.252658	-4.094331	88.450069	0.264379	1.039629	0.105845	-7.080653	-1.643701	18.537360	1.453099	0.025361	20.491692	-13.666692	0.000000	-5.136380	0.678029	-1.488095	5.585011	0.097477	26.962933	-6.602776	0.000000	0.375863	-0.000152	0.994852	0.698015	-0.000203	1.057030	0.617505	-0.000371	1.057030	0.429574	-0.000371	0.870495	0.349026	-0.000311	0.808317	0.214768	-0.000236	0.746139	2.684750	-0.001725	5.533068	0.000000	0.000000	27.672380	3.066143	14.425535	3.728366	-6.574913	64.757333	46.612257	0.878225	-8.624505	2.390515	14.335248	-2.616449	68.208425	39.881705	79.148581	5.873174	13.669644
0.135593	0.306244	-4.069090	88.113244	0.264651	1.039438	0.105366	-7.128846	-1.635182	18.907915	1.420476	0.024792	20.489478	-13.761731	0.000000	-5.332209	0.676521	-1.682976	5.414392	0.094499	26.768072	-6.669657	0.000000	0.376513	0.013052	1.016271	0.699222	0.017359	1.079788	0.618573	0.031735	1.079788	0.430317	0.031735	0.889237	0.349630	0.026616	0.825720	0.215139	0.020218	0.762204	2.689394	0.147648	5.652197	0.000000	0.000000	27.693699	3.124741	14.255846	3.708221	-6.579120	64.821041	46.630405	0.899757	-9.100242	3.117717	14.368960	-2.668284	68.514614	39.927869	79.266238	5.848566	13.603705
0.152542	0.377592	-4.057239	87.751909	0.264982	1.039304	0.104993	-7.150504	-1.605334	19.265292	1.404979	0.024522	20.461086	-13.822106	0.000000	-5.506772	0.653437	-1.917140	5.252719	0.091677	26.561362	-6.697750	0.000000	0.378071	0.028232	1.042769	0.702115	0.037549	1.107942	0.621133	0.068643	1.107942	0.432097	0.068643	0.912423	0.351077	0.057571	0.847250	0.216030	0.043731	0.782077	2.700522	0.319366	5.799568	0.000000	0.000000	27.719477	3.117172	14.030036	3.716288	-6.592880	64.927653	46.627789	0.926261	-9.555854	3.867483	14.440853	-2.696887	68.976827	39.917100	79.215897	5.765200	13.417093
0.169492	0.463290	-4.059068	87.378895	0.265346	1.039218	0.104714	-7.147854	-1.557725	19.599885	1.403868	0.024502	20.411417	-13.847300	0.000000	-5.657380	0.612102	-2.188245	5.102762	0.089060	26.358022	-6.681270	0.000000	0.380782	0.044930	1.073397	0.707150	0.059756	1.140484	0.625587	0.109242	1.140484	0.435196	0.109242	0.939222	0.353594	0.091621	0.872135	0.217579	0.069596	0.805047	2.719889	0.508253	5.969910	0.000000	0.000000	27.749574	3.057755	13.764929	3.746414	-6.614514	65.073981	46.605173	0.956748	-9.976406	4.607775	14.539301	-2.703587	69.554740	39.857542	79.051471	5.626637	13.122922
0.186441	0.548912	-4.069702	87.023024	0.265688	1.039171	0.104503	-7.128769	-1.508031	19.662720	1.439232	0.025119	20.396967	-13.552292	0.000000	-5.778527	0.559922	-2.616728	4.976602	0.086858	26.272932	-6.452321	0.000000	0.384936	0.061088	1.115973	0.714865	0.081248	1.185722	0.632412	0.148531	1.185722	0.439944	0.148531	0.976477	0.357452	0.124572	0.906728	0.219953	0.094626	0.836980	2.749562	0.691045	6.206708	0.000000	0.000000	27.782605	3.053100	13.524693	3.728241	-6.640391	65.157687	46.580126	0.993246	-10.239657	5.126826	14.689862	-2.676149	70.380608	39.741727	78.743439	5.385146	12.683808
0.203390	0.647513	-4.112577	86.686103	0.265987	1.039142	0.104324	-7.083852	-1.440346	19.977281	1.447421	0.025262	20.272252	-13.634529	0.000000	-5.857871	0.500259	-2.957341	4.859619	0.084816	26.184823	-6.335190	0.000000	0.393537	0.078631	1.155068	0.730837	0.104580	1.227259	0.646542	0.191184	1.227259	0.449773	0.191184	1.010684	0.365438	0.160345	0.938492	0.224867	0.121800	0.866301	2.810994	0.889493	6.424140	0.000000	0.000000	27.823911	3.000051	13.306719	3.764297	-6.676532	65.420742	46.522662	1.029812	-10.456474	5.547333	14.742867	-2.633927	70.904111	39.620204	78.824928	5.117162	12.170093
0.220339	0.764219	-4.173120	86.383104	0.266217	1.039148	0.104207	-7.013895	-1.353988	20.192061	1.456260	0.025417	20.180807	-13.587085	0.000000	-5.899168	0.421492	-3.312176	4.770058	0.083253	26.144089	-6.180376	0.000000	0.404158	0.097977	1.195368	0.750562	0.130310	1.270079	0.663992	0.238222	1.270079	0.461913	0.238222	1.045947	0.375301	0.199795	0.971237	0.230936	0.151767	0.896526	2.886863	1.108338	6.648279	0.000000	0.000000	27.871459	2.899798	13.082769	3.816157	-6.721799	65.746319	46.422220	1.072955	-10.532863	5.881513	14.822129	-2.562183	71.538414	39.447178	78.684084	4.744738	11.558673
0.237288	0.883556	-4.249153	86.127029	0.266369	1.039170	0.104137	-6.927837	-1.263013	20.380682	1.460412	0.025489	20.078111	-13.541921	0.000000	-5.906651	0.337273	-3.645840	4.701125	0.082050	26.145937	-5.994984	0.000000	0.416586	0.117485	1.229630	0.773641	0.156255	1.306482	0.684409	0.285653	1.306482	0.476116	0.285653	1.075927	0.386841	0.239576	0.999075	0.238037	0.181985	0.922223	2.975630	1.329016	6.838836	0.000000	0.000000	27.923696	2.790387	12.895859	3.894679	-6.770924	66.140178	46.309445	1.112719	-10.603806	6.155782	14.829039	-2.480257	71.934906	39.292212	78.875557	4.346998	10.941552
0.254237	1.000180	-4.337418	85.935310	0.266438	1.039188	0.104134	-6.827799	-1.169328	20.497240	1.468843	0.025636	19.986205	-13.465311	0.000000	-5.873728	0.248587	-3.975168	4.665721	0.081432	26.207771	-5.746350	0.000000	0.430547	0.136222	1.257431	0.799569	0.181175	1.336021	0.707345	0.331209	1.336021	0.492072	0.331209	1.100252	0.399806	0.277783	1.021663	0.246014	0.211007	0.943074	3.075353	1.540967	6.993456	0.000000	0.000000	27.976939	2.685184	12.730322	3.980944	-6.815141	66.549597	46.177279	1.148089	-10.625301	6.337026	14.799808	-2.389354	72.191535	39.140169	79.258328	3.971665	10.341406
